PathFileType	4	(X/Y/Z)	C:/Users/beibeiliu/ov580/test_trc/User3\sequence.34_training_dense_right.trc
DataRate	CameraRate	NumFrames	NumMarkers	Units	OrigDataRate	OrigDataStartFrame	OrigNumFrames
120	120	10	19	mm	120	1	126
Frame#	Time	ThumbCMC			ThumbMCP			ThumbIP			ThumbTip			IndexMCP			IndexPIP			IndexTip			MiddleMCP			MiddlePIP			MiddleTip			RingMCP			RingPIP			RingTip			PinkyMCP			PinkyPIP			PinkyTip			BackHand1			BackHand2			BackHand3	
		X0	Y0	Z0	X1	Y1	Z1	X2	Y2	Z2	X3	Y3	Z3	X4	Y4	Z4	X5	Y5	Z5	X6	Y6	Z6	X7	Y7	Z7	X8	Y8	Z8	X9	Y9	Z9	X10	Y10	Z10	X11	Y11	Z11	X12	Y12	Z12	X13	Y13	Z13	X14	Y14	Z14	X15	Y15	Z15	X16	Y16	Z16	X17	Y17	Z17	X18	Y18	Z18	
0	0	163.498	-62.8477	21.4479	182.737	-64.9704	-4.09774	193.936	-69.0461	-31.7009	203.461	-70.1932	-49.9158	148.766	-79.2318	-56.2609	146.734	-61.9834	-80.8886	147.496	-47.9276	-98.7642	122.552	-90.8491	-57.8646	123.83	-81.8515	-83.153	118.129	-73.4984	-113.199	105.507	-93.0143	-47.891	101.018	-93.2709	-71.7736	92.9105	-94.4454	-97.7446	86.4477	-93.4647	-25.1199	73.897	-102.775	-39.2623	61.3775	-113.74	-50.6002	113.94	-97.796	5.95608	117.04	-95.0452	37.1383	146.97	-90.8813	17.7805	
1	0.00833333	162.81	-63.6168	16.7584	176.053	-63.5676	-3.19388	188.976	-69.0538	-33.3002	202.355	-67.1525	-48.2059	145.925	-77.1662	-55.7542	146.516	-60.8266	-80.8524	139.749	-44.7081	-100.687	123.594	-88.8889	-56.9062	120.88	-79.4352	-86.9784	114.957	-71.2875	-115.016	104.833	-91.8644	-50.1131	93.9802	-92.1305	-67.7837	90.7324	-92.471	-96.988	84.594	-91.7654	-24.7785	70.7056	-102.543	-39.8481	60.8895	-113.625	-55.542	112.08	-96.4226	5.93383	114.632	-93.5549	36.568	145.452	-91.4476	14.6781	
2	0.0166667	161.818	-60.5131	21.5357	172.993	-63.1257	-5.45129	187.902	-66.8473	-32.5635	196.731	-67.0965	-50.1	142.438	-75.0563	-56.2927	144.574	-59.7355	-77.578	136.525	-43.9961	-97.9353	119.76	-84.8273	-62.0439	118.046	-75.9066	-86.3167	111.032	-66.6682	-115.63	99.0654	-89.8803	-48.544	94.7651	-88.5877	-68.4091	86.5902	-88.5931	-95.5431	81.866	-92.0613	-25.4394	68.5105	-98.6043	-38.394	59.0678	-110.084	-51.9485	108.517	-95.8591	4.73919	109.035	-94.7175	34.2169	141.106	-90.7698	16.1579	
3	0.025	159.782	-60.8618	18.375	172.583	-61.1566	-3.66782	183.871	-66.6338	-34.2242	195.767	-65.3841	-51.386	141.406	-74.3402	-55.0028	139.307	-56.2055	-80.9406	130.62	-41.9739	-98.8473	113.122	-86.1146	-59.5882	110.511	-75.8671	-86.9993	104.861	-65.1504	-113.39	97.6917	-90.7212	-50.0616	89.8601	-90.1208	-71.9652	84.3076	-88.0786	-96.4401	79.4266	-90.997	-23.9213	67.4224	-97.5106	-36.6795	53.2474	-112.319	-53.4768	109.097	-96.6061	4.60857	107.996	-91.6069	36.4238	141.55	-89.1922	11.817	
4	0.0333333	157.508	-60.6235	17.1442	167.675	-60.2824	-4.92861	179.798	-64.2726	-33.7594	189.934	-63.6473	-53.217	134.762	-71.777	-58.3218	135.462	-56.1458	-78.4561	124.954	-39.8001	-96.9421	114.078	-84.9654	-56.4784	107.766	-73.4461	-86.5292	103.047	-63.5585	-111.793	94.8391	-88.4464	-44.3857	88.2619	-88.4397	-72.3443	79.446	-87.9291	-97.2196	74.9007	-88.3878	-20.4751	62.0995	-100.187	-38.6298	48.9147	-110.499	-53.415	105.535	-94.2348	8.17702	103.144	-93.3864	37.5904	133.819	-88.3256	16.405	
5	0.0416667	152.604	-57.0851	15.5479	160.811	-56.2998	-6.29418	172.792	-57.156	-31.1895	182.864	-57.2309	-51.6287	132.531	-66.3318	-56.6962	125.015	-51.1529	-79.1747	123.55	-30.9923	-98.6551	106.61	-81.2887	-56.2387	100.585	-71.2519	-82.5234	97.5309	-58.9349	-109.357	90.6448	-85.1872	-47.7417	80.7433	-85.3805	-67.9878	76.2594	-82.0046	-92.8295	68.5496	-88.0285	-22.0238	60.3496	-94.8837	-36.0431	43.0969	-109.398	-51.8572	97.3831	-92.3425	6.24058	102.156	-90.079	34.2654	130.201	-86.0841	12.1132	
6	0.05	147.233	-50.9652	16.8975	161.175	-49.5928	-5.17278	173.343	-50.9459	-34.1163	181.434	-47.7254	-51.9076	127.238	-61.1366	-56.3443	124.714	-43.0576	-79.25	112.75	-27.2234	-95.9231	105.503	-75.5091	-57.1664	98.3118	-64.7529	-81.8387	90.7972	-52.0761	-109.575	83.5307	-82.1456	-45.8577	75.8673	-80.7359	-66.8055	68.5222	-78.1687	-90.8447	68.7766	-82.6456	-19.8982	52.604	-92.4198	-34.8948	39.743	-105.444	-50.9588	99.7341	-88.5314	9.0498	103.252	-85.5632	36.6686	130.247	-79.9974	12.5069	
7	0.0583333	146.075	-41.8249	21.2908	156.859	-41.0247	-5.28534	166.976	-40.7465	-33.3739	175.271	-38.6203	-54.1776	124.148	-52.4872	-56.09	114.214	-34.3682	-77.9207	105.744	-15.9633	-95.1912	98.587	-67.1786	-56.7111	92.1012	-55.8749	-80.9981	80.1305	-43.3063	-109.888	79.0176	-75.328	-44.3943	70.2628	-74.5123	-65.6432	66.1872	-71.3581	-89.0216	66.3225	-77.6196	-16.3266	53.9701	-85.8698	-31.1098	38.4015	-100.87	-45.0435	98.353	-84.4982	5.96661	102.427	-81.3377	39.8158	131.437	-72.9005	15.5141	
8	0.0666667	139.912	-36.5358	16.8001	152.98	-32.1238	-5.92542	159.904	-31.173	-32.7827	168.077	-27.1918	-53.9454	116.53	-44.5765	-56.0805	109.865	-27.4767	-76.5244	98.8863	-11.9716	-90.5085	94.0219	-61.3211	-54.758	84.5938	-48.1403	-81.3081	77.3482	-36.9415	-102.974	79.8857	-69.2934	-40.3189	69.8002	-67.2482	-62.2271	58.488	-65.5332	-89.5954	62.1743	-74.0907	-15.7414	50.7354	-81.5963	-32.4051	34.8508	-93.1593	-41.3956	93.1252	-79.8254	8.96675	97.8826	-76.969	37.8517	126.14	-66.257	16.6398	
9	0.075	139.849	-29.4119	17.7431	148.6	-25.2369	-10.2934	155.858	-23.9839	-36.9521	162.594	-21.0532	-59.2994	109.633	-40.0584	-58.4293	106.272	-21.9918	-75.8408	91.2498	-2.65241	-92.7716	91.4086	-54.5688	-60.1553	79.4234	-42.7352	-83.186	71.4365	-30.9402	-105.841	74.5006	-64.3609	-42.044	65.7471	-61.7588	-64.2368	54.515	-59.1704	-89.7241	56.4889	-69.661	-16.4478	46.0719	-77.0152	-32.5402	34.8013	-89.2235	-46.148	94.029	-70.05	7.56939	94.9275	-71.189	34.2673	122.169	-62.8535	14.8361	
